<svg xmlns="http://www.w3.org/2000/svg" viewBox="0 0 323.92 56.34"><defs><style>.cls-1{fill:#231f20;}</style></defs><title>Asset 2</title><g id="Layer_2" data-name="Layer 2"><g id="Layer_1-2" data-name="Layer 1"><path d="M216.28,37.36a8.33,8.33,0,0,1-.85-.26,1.14,1.14,0,0,1-.67-.68c0-.09-.09-.12-.21-.12-.64,0-1-.27-1-.78a.81.81,0,0,1,.16-.58s0-.08,0-.12a.89.89,0,0,1,0-1,1.69,1.69,0,0,1,.27-.25,5.28,5.28,0,0,1-.79-2.67,2.15,2.15,0,0,0-.43-1.06c-.48-.69-1-1.36-1.46-2a5.17,5.17,0,0,1-1-2.39,3.5,3.5,0,0,1,.84-2.77,4.67,4.67,0,0,1,1.94-1.27,9.12,9.12,0,0,1,2.48-.52l.34,0h1.2l.95.11a7.5,7.5,0,0,1,2.58.77,3.76,3.76,0,0,1,1.78,1.8,3.69,3.69,0,0,1,0,3,9.77,9.77,0,0,1-1.25,2.05c-.38.52-.75,1.06-1.11,1.59a2.45,2.45,0,0,0-.31,1.21,5.06,5.06,0,0,1-.53,1.9c-.07.13-.15.25-.22.37a1.71,1.71,0,0,1,.27.25.86.86,0,0,1,0,1,.16.16,0,0,0,0,.2.85.85,0,0,1-.2,1.15,1.06,1.06,0,0,1-.67.16c-.09,0-.15,0-.19.09a1.66,1.66,0,0,1-1.43.94l-.09,0Zm.64-3.87H218a.14.14,0,0,0,.09-.05,4.69,4.69,0,0,0,.44-.63,4,4,0,0,0,.41-1.67,3.64,3.64,0,0,1,.79-2c.41-.56.83-1.12,1.24-1.69a5.15,5.15,0,0,0,.82-1.64,3.09,3.09,0,0,0-.12-2,3,3,0,0,0-1.17-1.38,5.77,5.77,0,0,0-2.27-.81,11,11,0,0,0-2.7-.08,7.2,7.2,0,0,0-2.4.59,3.32,3.32,0,0,0-1.5,1.24,3,3,0,0,0-.36,2.39,5.1,5.1,0,0,0,.84,1.71c.4.57.84,1.13,1.24,1.7a3.6,3.6,0,0,1,.75,1.63,7.71,7.71,0,0,0,.24,1.49,2.68,2.68,0,0,0,.63,1.14.26.26,0,0,0,.16.08h1c.09,0,.13,0,.13-.1s0-.3,0-.45a32.81,32.81,0,0,0,0-4c0-.14,0-.29-.05-.44l-.2,0a2.19,2.19,0,0,1-1.67-.43,2,2,0,0,1-.75-2.15,1,1,0,0,1,.77-.72,1.52,1.52,0,0,1,1.1.18,2.14,2.14,0,0,1,.9,1l.1.2.05-.13a3.09,3.09,0,0,1,.72-1.15,1.69,1.69,0,0,1,.83-.49,1,1,0,0,1,1.37.79,1.72,1.72,0,0,1-.6,1.38A5.51,5.51,0,0,1,217,28.26c-.1,0-.13.09-.12.18a7.37,7.37,0,0,1,.07.78c0,1.05,0,2.11,0,3.16C216.92,32.74,216.92,33.1,216.92,33.49ZM215.73,28l.26,0c.11,0,.14,0,.12-.13a5.23,5.23,0,0,0-.41-1.33,1.55,1.55,0,0,0-.64-.72.57.57,0,0,0-.8.12.92.92,0,0,0-.11.32,1.57,1.57,0,0,0,.42,1.29A1.46,1.46,0,0,0,215.73,28Zm.78,6.61h1.81c.46,0,.48,0,.47-.38,0-.2-.07-.25-.32-.25h-3.92c-.24,0-.32.06-.33.25a1.18,1.18,0,0,0,0,.15c0,.18.09.23.31.23Zm0,.53h-2c-.19,0-.26,0-.29.19a.71.71,0,0,0,0,.15c0,.24.07.29.36.29h3.73c.47,0,.49,0,.48-.39,0-.19-.07-.24-.31-.24Zm.33-7.47.06,0c.23-.13.46-.25.68-.39a3.16,3.16,0,0,0,1.09-1,.78.78,0,0,0,.1-.67.4.4,0,0,0-.61-.2,1.57,1.57,0,0,0-.49.38,3.56,3.56,0,0,0-.48.8A11.07,11.07,0,0,0,216.82,27.69Zm.78,8.63h-2.18c.06.27.56.52,1.06.52A1.18,1.18,0,0,0,217.61,36.32Z"/><path d="M209.14,41.54c-4.54.9-7.41-1.29-7.82-5.89a1.88,1.88,0,0,0-.53-1.13,8,8,0,0,1-2.39-9.1,7.84,7.84,0,0,1,7.85-5l.42,0c.09-.25.21-.52.29-.79A9,9,0,0,1,214,13a8.83,8.83,0,0,1,9,3.18,1.23,1.23,0,0,0,1.4.56,7.76,7.76,0,0,1,9.53,8.41,1.94,1.94,0,0,0,.83,2.14,5.37,5.37,0,0,1,1.85,6.07,5.52,5.52,0,0,1-4.85,4c-.22,0-.45,0-.74,0a7.25,7.25,0,0,1-3.33,4.74,7.81,7.81,0,0,1-5.26,1.31c-1.14-.15-2.27-.89-3.34-.78s-1.95,1.11-3,1.44C213.08,45.08,211.12,44.31,209.14,41.54Zm13.73-22.29c-1.72-3.18-4.25-5.08-8-4.52-4.46.68-6.3,3.78-6.63,8l-1.1-.29a5.92,5.92,0,0,0-6.5,2.5,6.07,6.07,0,0,0,.34,7.16c.61.73,1.73,1.13,2.13,1.93s0,1.93.26,2.86c.6,2.54,2.68,3.62,5.19,2.82.49-.16,1-.34,1.46-.51,2.43,4.33,5.12,4.62,8.76,1,4.08,3.35,10.86.86,10.62-4.66a17.62,17.62,0,0,0,3.28-.3,3,3,0,0,0,2.15-2.42,5.73,5.73,0,0,0-.1-2.53c-.46-1.62-1.9-2.2-3.37-2.65,1.25-2.84,1.14-5.44-1.08-7.6S225.57,17.88,222.87,19.25Z"/><path d="M207.78,42.75a2.58,2.58,0,0,1,2.56,2.61,2.59,2.59,0,1,1-5.17-.05A2.58,2.58,0,0,1,207.78,42.75Zm.26,1.19h-.54c-.32.46-.84.9-.92,1.4a1.18,1.18,0,1,0,2.35,0C208.86,44.86,208.35,44.41,208,43.94Z"/><path d="M204.55,50.14c-.46-.65-1-1-.93-1.41s.57-.7.88-1.05c.36.35.93.65,1,1.06S205,49.49,204.55,50.14Z"/><path class="cls-1" d="M25.26,14.64a14,14,0,0,1,5.4,5.7,17.82,17.82,0,0,1,1.92,8.4A17.74,17.74,0,0,1,30.69,37a13.71,13.71,0,0,1-5.34,5.64,15.37,15.37,0,0,1-7.89,2A14.47,14.47,0,0,1,10.38,43a12,12,0,0,1-4.8-4.8v6.3H0V0H5.58V19.08a12.11,12.11,0,0,1,4.77-4.8,14.18,14.18,0,0,1,7-1.68A15.37,15.37,0,0,1,25.26,14.64ZM21.75,38.4a9.91,9.91,0,0,0,3.78-4,12.36,12.36,0,0,0,1.35-5.82A12,12,0,0,0,25.5,22.8a10.19,10.19,0,0,0-3.78-4,10.4,10.4,0,0,0-5.46-1.44,10.56,10.56,0,0,0-5.49,1.44A10.11,10.11,0,0,0,7,22.8a12,12,0,0,0-1.38,5.76A12.08,12.08,0,0,0,7,34.41a10.15,10.15,0,0,0,3.81,4,10.56,10.56,0,0,0,5.49,1.44A10.56,10.56,0,0,0,21.75,38.4Z"/><path class="cls-1" d="M47.3,14.43a13.2,13.2,0,0,1,6.84-1.83V18a10.21,10.21,0,0,0-11.28,9.78V44.52H37.28V12.78h5.58v6.84A11.48,11.48,0,0,1,47.3,14.43Z"/><path class="cls-1" d="M62.33,1.14a3.55,3.55,0,0,1,1,2.58,3.55,3.55,0,0,1-1,2.58,3.55,3.55,0,0,1-5,0,3.55,3.55,0,0,1-1-2.58,3.55,3.55,0,0,1,1-2.58,3.55,3.55,0,0,1,5,0ZM57.08,12.78h5.58V44.52H57.08Z"/><path class="cls-1" d="M98.4,12.78v28.5a15.46,15.46,0,0,1-2,8,13.35,13.35,0,0,1-5.67,5.25,18.83,18.83,0,0,1-8.52,1.83A21.7,21.7,0,0,1,69.12,51.9l2.46-4.08a16.91,16.91,0,0,0,4.86,2.85A15.85,15.85,0,0,0,82,51.6a11,11,0,0,0,7.86-2.76,9.64,9.64,0,0,0,2.94-7.38V37a11.8,11.8,0,0,1-4.56,4.47,13.42,13.42,0,0,1-6.6,1.59,14.42,14.42,0,0,1-7.53-1.95A13.28,13.28,0,0,1,69,35.7a17.12,17.12,0,0,1-1.8-8A16.63,16.63,0,0,1,69,19.86a13.17,13.17,0,0,1,5.07-5.34A14.6,14.6,0,0,1,81.6,12.6a13.6,13.6,0,0,1,6.63,1.56,11.65,11.65,0,0,1,4.53,4.44V12.78ZM87.9,37.2a9.64,9.64,0,0,0,3.57-3.81,11.53,11.53,0,0,0,1.29-5.49,11.66,11.66,0,0,0-1.29-5.55,9.66,9.66,0,0,0-3.57-3.81,9.89,9.89,0,0,0-5.22-1.38,10,10,0,0,0-5.25,1.38,9.79,9.79,0,0,0-3.63,3.81,11.43,11.43,0,0,0-1.32,5.55,11,11,0,0,0,2.88,7.68,9.59,9.59,0,0,0,7.32,3A9.88,9.88,0,0,0,87.9,37.2Z"/><path class="cls-1" d="M131.71,15.87q3.18,3.27,3.18,9V44.52h-5.58V26.4a8.47,8.47,0,0,0-2.25-6.27,8.39,8.39,0,0,0-6.21-2.25A9.44,9.44,0,0,0,113.53,21a11.53,11.53,0,0,0-2.7,7.92v15.6h-5.58V0h5.58V19.62q3.18-6.9,12.12-7Q128.54,12.6,131.71,15.87Z"/><path class="cls-1" d="M158,42.42a13.68,13.68,0,0,1-7.44,2.34,8.46,8.46,0,0,1-6.12-2.25q-2.34-2.25-2.34-6.81V18.12h-4.5V13.86h4.5V5.34h5.64v8.52h9.72v4.26h-9.72V34.68a5.87,5.87,0,0,0,1,3.78,3.55,3.55,0,0,0,2.88,1.14,10.06,10.06,0,0,0,4.92-1.5Z"/><path class="cls-1" d="M186.72,14.64a14,14,0,0,1,5.4,5.7,17.83,17.83,0,0,1,1.92,8.4A17.74,17.74,0,0,1,192.15,37a13.7,13.7,0,0,1-5.34,5.64,15.38,15.38,0,0,1-7.89,2A14.47,14.47,0,0,1,171.84,43a12,12,0,0,1-4.8-4.8v6.3h-5.58V0H167V19.08a12.11,12.11,0,0,1,4.77-4.8,14.18,14.18,0,0,1,7-1.68A15.37,15.37,0,0,1,186.72,14.64ZM183.21,38.4a9.91,9.91,0,0,0,3.78-4,12.36,12.36,0,0,0,1.35-5.82A12,12,0,0,0,187,22.8a10.19,10.19,0,0,0-3.78-4,10.41,10.41,0,0,0-5.46-1.44,10.56,10.56,0,0,0-5.49,1.44,10.11,10.11,0,0,0-3.81,4A12,12,0,0,0,167,28.56a12.09,12.09,0,0,0,1.38,5.85,10.16,10.16,0,0,0,3.81,4,11.18,11.18,0,0,0,11,0Z"/><path class="cls-1" d="M262.38,44.52V40.08q-3.54,4.68-11.1,4.68a12.66,12.66,0,0,1-5.79-1.26A9.27,9.27,0,0,1,241.65,40a9.39,9.39,0,0,1-1.35-5,8.15,8.15,0,0,1,3.15-6.75q3.15-2.49,8.79-2.55h10.08v-1.5A6.56,6.56,0,0,0,260.25,19a8.84,8.84,0,0,0-6-1.83,17.26,17.26,0,0,0-9.78,3.42L242.1,16.8a29.06,29.06,0,0,1,6.33-3.21,21.59,21.59,0,0,1,6.93-1q5.94,0,9.18,2.91a10.54,10.54,0,0,1,3.3,8.13l.06,20.88Zm-3.33-6.27a7.45,7.45,0,0,0,3.27-5V30.06H253a10.86,10.86,0,0,0-5.61,1.14,3.93,3.93,0,0,0-1.83,3.6,4.67,4.67,0,0,0,1.86,3.9,7.92,7.92,0,0,0,5,1.44A11.36,11.36,0,0,0,259.05,38.25Z"/><path class="cls-1" d="M284.4,14.43a13.2,13.2,0,0,1,6.84-1.83V18A10.21,10.21,0,0,0,280,27.78V44.52h-5.58V12.78H280v6.84A11.48,11.48,0,0,1,284.4,14.43Z"/><path class="cls-1" d="M323.92,0V44.52h-5.58v-6.3a12.62,12.62,0,0,1-4.83,4.89,14.1,14.1,0,0,1-7,1.71,15.15,15.15,0,0,1-8-2.07A14.22,14.22,0,0,1,293.14,37a18,18,0,0,1-1.92-8.43,17.5,17.5,0,0,1,1.92-8.31,14.11,14.11,0,0,1,5.37-5.67,15.21,15.21,0,0,1,7.89-2,14.62,14.62,0,0,1,7.14,1.68,12,12,0,0,1,4.8,4.86V0ZM313.15,38.58a10.11,10.11,0,0,0,3.81-4,12.14,12.14,0,0,0,1.38-5.82A12.28,12.28,0,0,0,317,22.86a10.13,10.13,0,0,0-3.81-4,10.68,10.68,0,0,0-5.55-1.44,10.51,10.51,0,0,0-5.55,1.47,10.33,10.33,0,0,0-3.81,4.05,12.13,12.13,0,0,0-1.38,5.82,12.13,12.13,0,0,0,1.38,5.82,10.1,10.1,0,0,0,3.81,4,11.41,11.41,0,0,0,11.1,0Z"/></g></g></svg>