<svg xmlns="http://www.w3.org/2000/svg" viewBox="0 0 76.04 72.69"><title>Asset 9</title><g id="Layer_2" data-name="Layer 2"><g id="Layer_1-2" data-name="Layer 1"><path d="M35.92,47.81a16.23,16.23,0,0,1-1.65-.5A2.22,2.22,0,0,1,33,46c-.06-.18-.18-.23-.41-.23-1.24,0-1.89-.53-1.9-1.52A1.58,1.58,0,0,1,31,43.1s0-.16,0-.23a1.73,1.73,0,0,1,0-2,3.29,3.29,0,0,1,.53-.49,10.28,10.28,0,0,1-1.54-5.2,4.19,4.19,0,0,0-.83-2.07c-.93-1.33-1.92-2.64-2.85-4a10.06,10.06,0,0,1-2-4.65,6.81,6.81,0,0,1,1.64-5.39,9.09,9.09,0,0,1,3.78-2.47,17.75,17.75,0,0,1,4.83-1c.22,0,.44-.06.66-.09h2.33l1.85.22a14.6,14.6,0,0,1,5,1.5,7.32,7.32,0,0,1,3.46,3.5,7.18,7.18,0,0,1,.05,5.79,19,19,0,0,1-2.43,4c-.75,1-1.47,2.06-2.16,3.1A4.78,4.78,0,0,0,42.72,36a9.85,9.85,0,0,1-1,3.7c-.13.24-.29.48-.43.72a3.33,3.33,0,0,1,.52.48,1.67,1.67,0,0,1,.06,1.92.31.31,0,0,0,0,.39,1.65,1.65,0,0,1-.38,2.24,2.06,2.06,0,0,1-1.3.31c-.17,0-.3,0-.37.17A3.23,3.23,0,0,1,37,47.77l-.18,0Zm1.24-7.54h2.05a.26.26,0,0,0,.17-.1,9.13,9.13,0,0,0,.87-1.23,7.87,7.87,0,0,0,.8-3.24,7.09,7.09,0,0,1,1.54-3.89c.8-1.1,1.62-2.19,2.41-3.29a10,10,0,0,0,1.6-3.19,6,6,0,0,0-.23-3.92,5.8,5.8,0,0,0-2.28-2.69,11.24,11.24,0,0,0-4.42-1.57A21.43,21.43,0,0,0,34.4,17a14,14,0,0,0-4.67,1.14,6.46,6.46,0,0,0-2.92,2.41,5.9,5.9,0,0,0-.71,4.65,9.92,9.92,0,0,0,1.63,3.32c.78,1.12,1.63,2.2,2.42,3.32A7,7,0,0,1,31.61,35a15,15,0,0,0,.48,2.91,5.21,5.21,0,0,0,1.23,2.22.51.51,0,0,0,.3.15c.66,0,1.32,0,2,0,.18,0,.25-.06.24-.2,0-.29,0-.58,0-.88a63.88,63.88,0,0,0,0-7.8c0-.28-.07-.56-.1-.85l-.39,0a4.26,4.26,0,0,1-3.26-.84,3.8,3.8,0,0,1-1.46-4.18,1.88,1.88,0,0,1,1.5-1.4,3,3,0,0,1,2.15.35,4.16,4.16,0,0,1,1.75,2l.2.39.11-.25a6,6,0,0,1,1.39-2.25,3.3,3.3,0,0,1,1.62-.94A2,2,0,0,1,42,25a3.35,3.35,0,0,1-1.17,2.68,10.73,10.73,0,0,1-3.62,2.37c-.19.08-.26.17-.24.34a14.35,14.35,0,0,1,.13,1.52c0,2.05,0,4.1,0,6.16C37.15,38.81,37.15,39.52,37.15,40.27ZM34.83,29.62l.51-.05c.21,0,.27-.09.24-.25a10.19,10.19,0,0,0-.8-2.59,3,3,0,0,0-1.24-1.41,1.1,1.1,0,0,0-1.55.23,1.79,1.79,0,0,0-.21.62,3.06,3.06,0,0,0,.81,2.51A2.85,2.85,0,0,0,34.83,29.62ZM36.36,42.5h3.53c.9,0,.93,0,.91-.74,0-.39-.13-.49-.62-.49H32.55c-.47,0-.62.12-.64.48a2.3,2.3,0,0,0,0,.28c0,.35.17.46.6.46Zm0,1H32.48c-.38,0-.5.09-.56.38a1.39,1.39,0,0,0,0,.28c0,.46.13.56.7.56h7.26c.91,0,.95,0,.93-.75,0-.37-.13-.46-.61-.46ZM37,29l.12.05c.44-.25.9-.49,1.32-.77a6.15,6.15,0,0,0,2.11-2,1.51,1.51,0,0,0,.2-1.3.79.79,0,0,0-1.2-.38,3.06,3.06,0,0,0-1,.74,6.94,6.94,0,0,0-.94,1.56A21.56,21.56,0,0,0,37,29Zm1.52,16.8H34.25c.11.52,1.08,1,2.07,1A2.3,2.3,0,0,0,38.49,45.78Z"/><path d="M22,55.94C13.16,57.69,7.59,53.42,6.78,44.48a3.66,3.66,0,0,0-1-2.19C.39,37.41-1.37,30.83,1.09,24.57s8.07-9.78,15.28-9.67c.22,0,.43,0,.81,0,.18-.48.4-1,.57-1.54C19.9,6.45,24.42,1.93,31.46.44S44.34,1.21,49,6.63A2.4,2.4,0,0,0,51.7,7.71,15.11,15.11,0,0,1,70.26,24.09c-.17,1.76-.09,2.94,1.62,4.16a10.46,10.46,0,0,1,3.61,11.82C74,44.64,70.78,47.17,66,47.83c-.43.06-.87.06-1.44.09a14.11,14.11,0,0,1-6.49,9.24,15.22,15.22,0,0,1-10.25,2.55c-2.21-.29-4.42-1.73-6.51-1.52S37.56,60.35,35.52,61C29.68,62.84,25.87,61.33,22,55.94Zm26.74-43.4c-3.34-6.18-8.28-9.9-15.5-8.8C24.57,5.05,21,11.09,20.34,19.36l-2.15-.56A11.54,11.54,0,0,0,5.53,23.66a11.82,11.82,0,0,0,.65,13.95c1.2,1.43,3.38,2.21,4.15,3.76s.08,3.76.51,5.56c1.18,4.94,5.23,7,10.1,5.48,1-.31,1.91-.66,2.84-1,4.72,8.43,10,9,17.06,1.9C48.8,59.86,62,55,61.53,44.25c2.15-.17,4.36,0,6.39-.58A5.89,5.89,0,0,0,72.11,39,11.15,11.15,0,0,0,71.92,34c-.89-3.15-3.7-4.29-6.57-5.16,2.43-5.53,2.21-10.6-2.09-14.8S54,9.87,48.75,12.54Z"/><path d="M19.37,58.31a5,5,0,0,1,5,5.09,5.18,5.18,0,0,1-5.08,5.05,5.19,5.19,0,0,1-5-5.16A5,5,0,0,1,19.37,58.31Zm.5,2.31h-1c-.63.91-1.63,1.75-1.8,2.73a2.08,2.08,0,0,0,2.27,2.39,2.08,2.08,0,0,0,2.31-2.35C21.46,62.4,20.48,61.54,19.87,60.62Z"/><path d="M13.07,72.69c-.89-1.27-1.86-2-1.81-2.74s1.1-1.37,1.72-2.05c.7.68,1.81,1.28,2,2.06C15.06,70.57,14,71.42,13.07,72.69Z"/></g></g></svg>