<svg xmlns="http://www.w3.org/2000/svg" viewBox="0 0 171.17 171.17"><defs><style>.cls-1{fill:#231f20;}.cls-2{fill:none;stroke:#231f20;stroke-miterlimit:10;stroke-width:5px;}.cls-3{fill:#fff;}</style></defs><title>Asset 4</title><g id="Layer_2" data-name="Layer 2"><g id="Layer_1-2" data-name="Layer 1"><circle class="cls-1" cx="85.59" cy="85.59" r="83.09"/><circle class="cls-2" cx="85.59" cy="85.59" r="83.09"/><path class="cls-3" d="M69.16,90.63q-3.35-1.22-8.82-3.74l-3.74-1.73q-3.82,4.25-8,4.25a7.28,7.28,0,0,1-6.34-3.49,5.53,5.53,0,0,1-.86-2.77,2.67,2.67,0,0,1,1.26-2.3,7.21,7.21,0,0,1,4-.86,37.08,37.08,0,0,1,8.86,1.51A49.69,49.69,0,0,0,58.9,74q1.58-4.35,3.89-11.7l1.73-5.47a11.88,11.88,0,0,1-5.22-3.17,6.47,6.47,0,0,1-.65-8.42,3.78,3.78,0,0,1,3.2-1.8,4.34,4.34,0,0,0-.72,1.94,15.27,15.27,0,0,0-.22,2.52A8.7,8.7,0,0,0,62,52.39a7.64,7.64,0,0,0,3,2.88,72.12,72.12,0,0,1,6.91-15.84q3.6-5.69,8.57-5.69a7.53,7.53,0,0,1,4.82,1.73q2.16,1.73,2.16,5.62a16.51,16.51,0,0,1-1.94,7.45A17,17,0,0,1,79.67,55a16.62,16.62,0,0,1-9.47,2.63H69q-3,8.93-5.26,14.76a52.56,52.56,0,0,1-5.11,10c.38.14.79.28,1.22.4s.86.25,1.3.4Q67.32,85.08,71,86a28.59,28.59,0,0,0,6.77.9,11,11,0,0,0,5.11-1.15,9.93,9.93,0,0,1-3,4.68,7.23,7.23,0,0,1-4.54,1.44A18.06,18.06,0,0,1,69.16,90.63ZM53.86,84q-5.33-2.16-8.21-2.16-2.38,0-2.38,1.37a3.84,3.84,0,0,0,1.48,2.74,5.06,5.06,0,0,0,3.56,1.37Q51.34,87.31,53.86,84Zm22.9-30.67a20.73,20.73,0,0,0,5-7,18.12,18.12,0,0,0,1.8-7.16,4.23,4.23,0,0,0-.72-2.77A2.37,2.37,0,0,0,81,35.55q-3,0-5.54,5.15a133.25,133.25,0,0,0-6,15.59A10.53,10.53,0,0,0,76.75,53.33Z"/><path class="cls-3" d="M83.39,132.22a4.1,4.1,0,0,1-1.65-3.72,17.38,17.38,0,0,1,.66-4.17q.66-2.55,2.1-7.11,2.34-7.44,3.57-12.51A41.37,41.37,0,0,0,89.3,95a44.24,44.24,0,0,0-.18-4.5,5.86,5.86,0,0,0-1-2.79,2.8,2.8,0,0,0-2.46-1.11,4.43,4.43,0,0,0-3.45,1.59,9.84,9.84,0,0,0-2.07,3.93,16.75,16.75,0,0,0-.66,4.56,8.29,8.29,0,0,0,.54,3.24,4,4,0,0,1-3.24-1.2,4.64,4.64,0,0,1-1-3.12,9.4,9.4,0,0,1,1.53-5A12.72,12.72,0,0,1,81.4,86.5a9.86,9.86,0,0,1,5.37-1.62,6.17,6.17,0,0,1,5.52,2.85,14.22,14.22,0,0,1,1.86,7.83,38.27,38.27,0,0,1-1.2,9.21q-1.2,4.83-3.42,11.67-1.56,4.74-2.34,7.68a20,20,0,0,0-.78,5,3.18,3.18,0,0,0,.39,1.77,1.59,1.59,0,0,0,1.41.57q2.82,0,6.78-5A60.75,60.75,0,0,0,102.14,115a37.67,37.67,0,0,0,3.72-10.59,3.59,3.59,0,0,1,2.7.93,2.85,2.85,0,0,1,.9,2,6.59,6.59,0,0,1-.48,2.1q-.48,1.32-1.74,4.32-2.16,5-3.3,8.52a21.39,21.39,0,0,0-1.14,6.66,4.21,4.21,0,0,0,.33,1.89,1.38,1.38,0,0,0,1.35.63q3.3,0,8.4-6.3a66.24,66.24,0,0,0,8.91-14.88q3.81-8.58,3.81-14.82a8.56,8.56,0,0,0-.87-4.29,4.18,4.18,0,0,0-2.43-2A7.46,7.46,0,0,1,124,87.13a2.89,2.89,0,0,1,1.74-.69,3.11,3.11,0,0,1,2.55,1.74,9.15,9.15,0,0,1,1.11,4.92q0,6.42-4.5,16.11a72.29,72.29,0,0,1-10.71,16.89q-6.21,7.2-11,7.2a5.87,5.87,0,0,1-3.57-1.17,3.89,3.89,0,0,1-1.59-3.33,20.83,20.83,0,0,1,1.2-5.4,38.57,38.57,0,0,1-6.42,7.23q-3.18,2.67-6,2.67A6.29,6.29,0,0,1,83.39,132.22Z"/></g></g></svg>